<svg width="400" height="100" viewBox="0 0 400 100" fill="none" xmlns="http://www.w3.org/2000/svg">
<g clip-path="url(#clip0_2_62)">
<path d="M384 0H16C7.16344 0 0 7.16344 0 16V84C0 92.8366 7.16344 100 16 100H384C392.837 100 400 92.8366 400 84V16C400 7.16344 392.837 0 384 0Z" fill="url(#paint0_linear_2_62)"/>
<path d="M32 20.8333H59.8877V29.1667H42.5418V45.4167H56.1502V53.75H42.5418V79.1667H32V20.8333ZM64.943 20.8333H75.4847V70.8333H92.8307V79.1667H64.943V20.8333ZM97.886 20.8333H108.428V79.1667H97.886V20.8333ZM131.177 80C126.13 80 122.264 78.75 119.581 76.25C116.962 73.75 115.652 70.2222 115.652 65.6667V34.3333C115.652 29.7778 116.962 26.25 119.581 23.75C122.264 21.25 126.13 20 131.177 20C136.224 20 140.058 21.25 142.677 23.75C145.361 26.25 146.702 29.7778 146.702 34.3333V40.5H136.735V33.75C136.735 30.1389 134.979 28.3333 131.465 28.3333C127.951 28.3333 126.194 30.1389 126.194 33.75V66.3333C126.194 69.8889 127.951 71.6667 131.465 71.6667C134.979 71.6667 136.735 69.8889 136.735 66.3333V57.4167H146.702V65.6667C146.702 70.2222 145.361 73.75 142.677 76.25C140.058 78.75 136.224 80 131.177 80ZM153.01 20.8333H163.551V45.4167L176.968 20.8333H187.51L174.956 42.25L187.701 79.1667H176.681L167.768 53.1667L163.551 60.5833V79.1667H153.01V20.8333ZM205.739 80C200.629 80 196.763 78.75 194.144 76.25C191.525 73.6945 190.214 70.0555 190.214 65.3333V62H200.181V66C200.181 69.7778 202.002 71.6667 205.644 71.6667C207.433 71.6667 208.775 71.2222 209.669 70.3333C210.627 69.3889 211.106 67.8889 211.106 65.8333C211.106 63.3889 210.468 61.25 209.19 59.4167C207.912 57.5278 205.548 55.2778 202.098 52.6667C197.754 49.3333 194.719 46.3333 192.994 43.6667C191.269 40.9445 190.406 37.8889 190.406 34.5C190.406 29.8889 191.748 26.3333 194.431 23.8333C197.114 21.2778 201.012 20 206.123 20C211.171 20 214.972 21.2778 217.527 23.8333C220.147 26.3333 221.456 29.9445 221.456 34.6667V37.0833H211.49V34.0833C211.49 32.0833 211.043 30.6389 210.148 29.75C209.254 28.8055 207.944 28.3333 206.219 28.3333C202.705 28.3333 200.948 30.1945 200.948 33.9167C200.948 36.0278 201.587 38 202.864 39.8333C204.206 41.6667 206.602 43.8889 210.052 46.5C214.46 49.8333 217.496 52.8611 219.156 55.5833C220.818 58.3055 221.648 61.5 221.648 65.1667C221.648 69.9445 220.275 73.6111 217.527 76.1667C214.844 78.7222 210.915 80 205.739 80ZM235.934 29.1667H224.913V20.8333H257.497V29.1667H246.476V79.1667H235.934V29.1667ZM277.465 80C272.29 80 268.328 78.7222 265.581 76.1667C262.833 73.6111 261.46 70 261.46 65.3333V34.6667C261.46 30 262.833 26.3889 265.581 23.8333C268.328 21.2778 272.29 20 277.465 20C282.64 20 286.6 21.2778 289.348 23.8333C292.095 26.3889 293.469 30 293.469 34.6667V65.3333C293.469 70 292.095 73.6111 289.348 76.1667C286.6 78.7222 282.64 80 277.465 80ZM277.465 71.6667C281.106 71.6667 282.927 69.75 282.927 65.9167V34.0833C282.927 30.25 281.106 28.3333 277.465 28.3333C273.823 28.3333 272.002 30.25 272.002 34.0833V65.9167C272.002 69.75 273.823 71.6667 277.465 71.6667ZM300.597 20.8333H316.218C321.649 20.8333 325.61 21.9444 328.102 24.1667C330.594 26.3333 331.839 29.6945 331.839 34.25V37.8333C331.839 43.8889 329.539 47.7222 324.939 49.3333V49.5C327.495 50.1667 329.284 51.5278 330.306 53.5833C331.393 55.6389 331.935 58.3889 331.935 61.8333V72.0833C331.935 73.75 331.999 75.1111 332.127 76.1667C332.255 77.1667 332.574 78.1667 333.085 79.1667H322.352C321.968 78.2222 321.713 77.3333 321.585 76.5C321.457 75.6667 321.393 74.1667 321.393 72V61.3333C321.393 58.6667 320.882 56.8055 319.86 55.75C318.902 54.6945 317.209 54.1667 314.781 54.1667H311.139V79.1667H300.597V20.8333ZM314.973 45.8333C317.081 45.8333 318.647 45.3611 319.668 44.4167C320.755 43.4722 321.298 41.8889 321.298 39.6667V35.1667C321.298 33.0555 320.851 31.5278 319.956 30.5833C319.126 29.6389 317.784 29.1667 315.931 29.1667H311.139V45.8333H314.973ZM339.25 20.8333H368V29.1667H349.792V44.5833H364.262V52.9167H349.792V70.8333H368V79.1667H339.25V20.8333Z" fill="black"/>
</g>
<defs>
<linearGradient id="paint0_linear_2_62" x1="0" y1="50" x2="400" y2="50" gradientUnits="userSpaceOnUse">
<stop stop-color="#FBBF24"/>
<stop offset="1" stop-color="#D3A000"/>
</linearGradient>
<clipPath id="clip0_2_62">
<rect width="400" height="100" fill="white"/>
</clipPath>
</defs>
</svg>
