<svg width="36" height="36" viewBox="0 0 36 36" fill="none" xmlns="http://www.w3.org/2000/svg">
<path d="M10 31.3334C9.26671 31.3334 8.63893 31.0722 8.11671 30.55C7.59448 30.0278 7.33337 29.4 7.33337 28.6667V12.6667C7.33337 11.9334 7.59448 11.3056 8.11671 10.7834C8.63893 10.2611 9.26671 10 10 10H12.6667C12.6667 8.53335 13.1889 7.2778 14.2333 6.23335C15.2778 5.18891 16.5333 4.66669 18 4.66669C19.4667 4.66669 20.7222 5.18891 21.7667 6.23335C22.8111 7.2778 23.3333 8.53335 23.3333 10H26C26.7333 10 27.3611 10.2611 27.8833 10.7834C28.4056 11.3056 28.6667 11.9334 28.6667 12.6667V28.6667C28.6667 29.4 28.4056 30.0278 27.8833 30.55C27.3611 31.0722 26.7333 31.3334 26 31.3334H10ZM10 28.6667H26V12.6667H23.3333V15.3334C23.3333 15.7111 23.2056 16.0278 22.95 16.2834C22.6945 16.5389 22.3778 16.6667 22 16.6667C21.6222 16.6667 21.3056 16.5389 21.05 16.2834C20.7945 16.0278 20.6667 15.7111 20.6667 15.3334V12.6667H15.3333V15.3334C15.3333 15.7111 15.2056 16.0278 14.95 16.2834C14.6945 16.5389 14.3778 16.6667 14 16.6667C13.6222 16.6667 13.3056 16.5389 13.05 16.2834C12.7945 16.0278 12.6667 15.7111 12.6667 15.3334V12.6667H10V28.6667ZM15.3333 10H20.6667C20.6667 9.26669 20.4056 8.63891 19.8833 8.11669C19.3611 7.59446 18.7333 7.33335 18 7.33335C17.2667 7.33335 16.6389 7.59446 16.1167 8.11669C15.5945 8.63891 15.3333 9.26669 15.3333 10Z" fill="#D4D4D4"/>
</svg>
