<svg width="36" height="37" viewBox="0 0 36 37" fill="none" xmlns="http://www.w3.org/2000/svg">
<path d="M16.8 24.5H19.2V17.3H16.8V24.5ZM18 14.9C18.34 14.9 18.625 14.785 18.855 14.555C19.085 14.325 19.2 14.04 19.2 13.7C19.2 13.36 19.085 13.075 18.855 12.845C18.625 12.615 18.34 12.5 18 12.5C17.66 12.5 17.375 12.615 17.145 12.845C16.915 13.075 16.8 13.36 16.8 13.7C16.8 14.04 16.915 14.325 17.145 14.555C17.375 14.785 17.66 14.9 18 14.9ZM18 30.5C16.34 30.5 14.78 30.185 13.32 29.555C11.86 28.925 10.59 28.07 9.51 26.99C8.43 25.91 7.575 24.64 6.945 23.18C6.315 21.72 6 20.16 6 18.5C6 16.84 6.315 15.28 6.945 13.82C7.575 12.36 8.43 11.09 9.51 10.01C10.59 8.93 11.86 8.075 13.32 7.445C14.78 6.815 16.34 6.5 18 6.5C19.66 6.5 21.22 6.815 22.68 7.445C24.14 8.075 25.41 8.93 26.49 10.01C27.57 11.09 28.425 12.36 29.055 13.82C29.685 15.28 30 16.84 30 18.5C30 20.16 29.685 21.72 29.055 23.18C28.425 24.64 27.57 25.91 26.49 26.99C25.41 28.07 24.14 28.925 22.68 29.555C21.22 30.185 19.66 30.5 18 30.5ZM18 28.1C20.68 28.1 22.95 27.17 24.81 25.31C26.67 23.45 27.6 21.18 27.6 18.5C27.6 15.82 26.67 13.55 24.81 11.69C22.95 9.83 20.68 8.9 18 8.9C15.32 8.9 13.05 9.83 11.19 11.69C9.33 13.55 8.4 15.82 8.4 18.5C8.4 21.18 9.33 23.45 11.19 25.31C13.05 27.17 15.32 28.1 18 28.1Z" fill="#E5E5E5"/>
</svg>
