<svg width="36" height="36" viewBox="0 0 36 36" fill="none" xmlns="http://www.w3.org/2000/svg">
<path d="M11.3333 14V11.3333H30V14H11.3333ZM11.3333 19.3333V16.6666H30V19.3333H11.3333ZM11.3333 24.6666V22H30V24.6666H11.3333ZM7.33333 14C6.95556 14 6.63889 13.8722 6.38333 13.6166C6.12778 13.3611 6 13.0444 6 12.6666C6 12.2889 6.12778 11.9722 6.38333 11.7166C6.63889 11.4611 6.95556 11.3333 7.33333 11.3333C7.71111 11.3333 8.02778 11.4611 8.28333 11.7166C8.53889 11.9722 8.66667 12.2889 8.66667 12.6666C8.66667 13.0444 8.53889 13.3611 8.28333 13.6166C8.02778 13.8722 7.71111 14 7.33333 14ZM7.33333 19.3333C6.95556 19.3333 6.63889 19.2055 6.38333 18.95C6.12778 18.6944 6 18.3778 6 18C6 17.6222 6.12778 17.3055 6.38333 17.05C6.63889 16.7944 6.95556 16.6666 7.33333 16.6666C7.71111 16.6666 8.02778 16.7944 8.28333 17.05C8.53889 17.3055 8.66667 17.6222 8.66667 18C8.66667 18.3778 8.53889 18.6944 8.28333 18.95C8.02778 19.2055 7.71111 19.3333 7.33333 19.3333ZM7.33333 24.6666C6.95556 24.6666 6.63889 24.5389 6.38333 24.2833C6.12778 24.0278 6 23.7111 6 23.3333C6 22.9555 6.12778 22.6389 6.38333 22.3833C6.63889 22.1278 6.95556 22 7.33333 22C7.71111 22 8.02778 22.1278 8.28333 22.3833C8.53889 22.6389 8.66667 22.9555 8.66667 23.3333C8.66667 23.7111 8.53889 24.0278 8.28333 24.2833C8.02778 24.5389 7.71111 24.6666 7.33333 24.6666Z" fill="#D4D4D4"/>
</svg>
