<svg width="36" height="36" viewBox="0 0 36 36" fill="none" xmlns="http://www.w3.org/2000/svg">
<path d="M18 18C16.5334 18 15.2778 17.4778 14.2334 16.4334C13.1889 15.3889 12.6667 14.1334 12.6667 12.6667C12.6667 11.2 13.1889 9.94449 14.2334 8.90004C15.2778 7.8556 16.5334 7.33337 18 7.33337C19.4667 7.33337 20.7223 7.8556 21.7667 8.90004C22.8112 9.94449 23.3334 11.2 23.3334 12.6667C23.3334 14.1334 22.8112 15.3889 21.7667 16.4334C20.7223 17.4778 19.4667 18 18 18ZM7.33337 28.6667V24.9334C7.33337 24.1778 7.52782 23.4834 7.91671 22.85C8.3056 22.2167 8.82226 21.7334 9.46671 21.4C10.8445 20.7112 12.2445 20.1945 13.6667 19.85C15.0889 19.5056 16.5334 19.3334 18 19.3334C19.4667 19.3334 20.9112 19.5056 22.3334 19.85C23.7556 20.1945 25.1556 20.7112 26.5334 21.4C27.1778 21.7334 27.6945 22.2167 28.0834 22.85C28.4723 23.4834 28.6667 24.1778 28.6667 24.9334V28.6667H7.33337ZM10 26H26V24.9334C26 24.6889 25.9389 24.4667 25.8167 24.2667C25.6945 24.0667 25.5334 23.9112 25.3334 23.8C24.1334 23.2 22.9223 22.75 21.7 22.45C20.4778 22.15 19.2445 22 18 22C16.7556 22 15.5223 22.15 14.3 22.45C13.0778 22.75 11.8667 23.2 10.6667 23.8C10.4667 23.9112 10.3056 24.0667 10.1834 24.2667C10.0612 24.4667 10 24.6889 10 24.9334V26ZM18 15.3334C18.7334 15.3334 19.3612 15.0723 19.8834 14.55C20.4056 14.0278 20.6667 13.4 20.6667 12.6667C20.6667 11.9334 20.4056 11.3056 19.8834 10.7834C19.3612 10.2612 18.7334 10 18 10C17.2667 10 16.6389 10.2612 16.1167 10.7834C15.5945 11.3056 15.3334 11.9334 15.3334 12.6667C15.3334 13.4 15.5945 14.0278 16.1167 14.55C16.6389 15.0723 17.2667 15.3334 18 15.3334Z" fill="#D4D4D4"/>
</svg>
