<svg width="36" height="36" viewBox="0 0 36 36" fill="none" xmlns="http://www.w3.org/2000/svg">
<path d="M28.1333 30L19.7333 21.6C19.0667 22.1333 18.3 22.5556 17.4333 22.8667C16.5667 23.1778 15.6444 23.3333 14.6667 23.3333C12.2444 23.3333 10.1944 22.4944 8.51667 20.8167C6.83889 19.1389 6 17.0889 6 14.6667C6 12.2444 6.83889 10.1944 8.51667 8.51667C10.1944 6.83889 12.2444 6 14.6667 6C17.0889 6 19.1389 6.83889 20.8167 8.51667C22.4944 10.1944 23.3333 12.2444 23.3333 14.6667C23.3333 15.6444 23.1778 16.5667 22.8667 17.4333C22.5556 18.3 22.1333 19.0667 21.6 19.7333L30 28.1333L28.1333 30ZM14.6667 20.6667C16.3333 20.6667 17.75 20.0833 18.9167 18.9167C20.0833 17.75 20.6667 16.3333 20.6667 14.6667C20.6667 13 20.0833 11.5833 18.9167 10.4167C17.75 9.25 16.3333 8.66667 14.6667 8.66667C13 8.66667 11.5833 9.25 10.4167 10.4167C9.25 11.5833 8.66667 13 8.66667 14.6667C8.66667 16.3333 9.25 17.75 10.4167 18.9167C11.5833 20.0833 13 20.6667 14.6667 20.6667Z" fill="#D4D4D4"/>
</svg>
